<?xml version="1.0" encoding="utf-8"?>
<svg version="1.1" xmlns:xlink="http://www.w3.org/1999/xlink" width="313px" height="379px" xmlns="http://www.w3.org/2000/svg">
  <g transform="matrix(1 0 0 1 -384 -132 )">
    <path d="M 385 140  A 7 7 0 0 1 392 133 L 689 133  A 7 7 0 0 1 696 140 L 696 503  A 7 7 0 0 1 689 510 L 392 510  A 7 7 0 0 1 385 503 L 385 140  Z " fill-rule="nonzero" fill="#1890ff" stroke="none" fill-opacity="0.43921568627451" />
    <path d="M 384.5 140  A 7.5 7.5 0 0 1 392 132.5 L 689 132.5  A 7.5 7.5 0 0 1 696.5 140 L 696.5 503  A 7.5 7.5 0 0 1 689 510.5 L 392 510.5  A 7.5 7.5 0 0 1 384.5 503 L 384.5 140  Z " stroke-width="1" stroke="#d9d9d9" fill="none" stroke-opacity="0.419607843137255" />
  </g>
</svg>