<?xml version="1.0" encoding="utf-8"?>
<svg version="1.1" xmlns:xlink="http://www.w3.org/1999/xlink" width="60px" height="20px" xmlns="http://www.w3.org/2000/svg">
  <g transform="matrix(1 0 0 1 -1286 -1015 )">
    <path d="M 1287 1019  A 3 3 0 0 1 1290 1016 L 1342 1016  A 3 3 0 0 1 1345 1019 L 1345 1031  A 3 3 0 0 1 1342 1034 L 1290 1034  A 3 3 0 0 1 1287 1031 L 1287 1019  Z " fill-rule="nonzero" fill="#f5f5f5" stroke="none" fill-opacity="0" />
    <path d="M 1286.5 1019  A 3.5 3.5 0 0 1 1290 1015.5 L 1342 1015.5  A 3.5 3.5 0 0 1 1345.5 1019 L 1345.5 1031  A 3.5 3.5 0 0 1 1342 1034.5 L 1290 1034.5  A 3.5 3.5 0 0 1 1286.5 1031 L 1286.5 1019  Z " stroke-width="1" stroke-dasharray="3,1" stroke="#d9d9d9" fill="none" stroke-dashoffset="0.5" />
  </g>
</svg>