<?xml version="1.0" encoding="utf-8"?>
<svg version="1.1" xmlns:xlink="http://www.w3.org/1999/xlink" width="34px" height="28px" xmlns="http://www.w3.org/2000/svg">
  <defs>
    <filter x="484px" y="431px" width="34px" height="28px" filterUnits="userSpaceOnUse" id="filter62">
      <feOffset dx="0" dy="1" in="SourceAlpha" result="shadowOffsetInner" />
      <feGaussianBlur stdDeviation="1" in="shadowOffsetInner" result="shadowGaussian" />
      <feComposite in2="shadowGaussian" operator="atop" in="SourceAlpha" result="shadowComposite" />
      <feColorMatrix type="matrix" values="0 0 0 0 0  0 0 0 0 0  0 0 0 0 0  0 0 0 0.349019607843137 0  " in="shadowComposite" />
    </filter>
    <g id="widget63">
      <path d="M 501 432  C 509.4 432  516 437.28  516 444  C 516 450.72  509.4 456  501 456  C 492.6 456  486 450.72  486 444  C 486 437.28  492.6 432  501 432  Z " fill-rule="nonzero" fill="#ffffff" stroke="none" />
      <path d="M 501 432.5  C 509.12 432.5  515.5 437.56  515.5 444  C 515.5 450.44  509.12 455.5  501 455.5  C 492.88 455.5  486.5 450.44  486.5 444  C 486.5 437.56  492.88 432.5  501 432.5  Z " stroke-width="1" stroke="#d9d9d9" fill="none" />
    </g>
  </defs>
  <g transform="matrix(1 0 0 1 -484 -431 )">
    <use xlink:href="#widget63" filter="url(#filter62)" />
    <use xlink:href="#widget63" />
  </g>
</svg>