<?xml version="1.0" encoding="utf-8"?>
<svg version="1.1" xmlns:xlink="http://www.w3.org/1999/xlink" width="70px" height="24px" xmlns="http://www.w3.org/2000/svg">
  <g transform="matrix(1 0 0 1 -1399 -353 )">
    <path d="M 1400 357  A 3 3 0 0 1 1403 354 L 1465 354  A 3 3 0 0 1 1468 357 L 1468 373  A 3 3 0 0 1 1465 376 L 1403 376  A 3 3 0 0 1 1400 373 L 1400 357  Z " fill-rule="nonzero" fill="#ffffff" stroke="none" />
    <path d="M 1399.5 357  A 3.5 3.5 0 0 1 1403 353.5 L 1465 353.5  A 3.5 3.5 0 0 1 1468.5 357 L 1468.5 373  A 3.5 3.5 0 0 1 1465 376.5 L 1403 376.5  A 3.5 3.5 0 0 1 1399.5 373 L 1399.5 357  Z " stroke-width="1" stroke-dasharray="9,4" stroke="#ff6600" fill="none" stroke-dashoffset="0.5" />
  </g>
</svg>